# xmcd
#
# Track frame offsets:
#	150
#	18558
#	31645
#	44761
#	55804
#	64469
#	77199
#	89778
#	98888
#	108930
#	122577
#	133524
#	142861
#	151289
#	164811
#	173846
#	183908
#	197001
#	209457
#	218424
#	229581
#	239931
#	253525
#	261896
#	275596
#	284694
#	292524
#
# Disc length: 4030 seconds
#
# Revision: 0
# Processed by: cddbd v1.5.2PL0 Copyright (c) Steve Scherf et al.
# Submitted via: EasyCDDAExtractor 12.0.1.1
#
DISCID=930fbc1b
DTITLE=Johnny Cash - Complete Recording Sessions [Cd 09] 1961 Sessions
DYEAR=2005
DGENRE=Country
TTITLE0=The Big Battle
TTITLE1=Forty Shades Of Green
TTITLE2=Forty Shades Of Green
TTITLE3=He'll Understand
TTITLE4=Tall Man
TTITLE5=God Has My Fortune Laid Away
TTITLE6=When I've Learnt
TTITLE7=I Got Shoes
TTITLE8=Let Thelower Lights Be Burning
TTITLE9=If We Never Meet Again
TTITLE10=When I Take My Vacation In H.
TTITLE11=When He Reached Down His Hand
TTITLE12=Taller Than Trees
TTITLE13=I Won't Have To Cross Jordan
TTITLE14=My God Is Real
TTITLE15=These Hands
TTITLE16=Folsom Prison Blues (Remake)
TTITLE17=I Walk The Line (Remake)
TTITLE18=Hey Porter (Remake)
TTITLE19=I Forgot More Than You'll Ever
TTITLE20=Mr. Lonesome
TTITLE21=There's Amother Always Waiting
TTITLE22=I'm Free From The Chain Gang
TTITLE23=Delia's Gone (Alt. #1)
TTITLE24=Sing It Pretty Sue
TTITLE25=Blue Bandana (Instrumental)
TTITLE26=So Doggone Lonesome (Instr)
EXTD=
EXTT0=
EXTT1=
EXTT2=
EXTT3=
EXTT4=
EXTT5=
EXTT6=
EXTT7=
EXTT8=
EXTT9=
EXTT10=
EXTT11=
EXTT12=
EXTT13=
EXTT14=
EXTT15=
EXTT16=
EXTT17=
EXTT18=
EXTT19=
EXTT20=
EXTT21=
EXTT22=
EXTT23=
EXTT24=
EXTT25=
EXTT26=
PLAYORDER=
